{"title":"An Hour To Save Your Life - S02E03 - Minutes From Death","uid":15883089,"size":484900362,"categoryP":"video","categoryS":"tv_shows","magnet":"?xt=urn:btih:25070d0200302a97fc260a593817778700eeac17&amp;dn=An+Hour+To+Save+Your+Life+-+S02E03+-+Minutes+From+Death&amp;tr=udp%3A%2F%2Ftracker.leechers-paradise.org%3A6969&amp;tr=udp%3A%2F%2Fzer0day.ch%3A1337&amp;tr=udp%3A%2F%2Fopen.demonii.com%3A1337&amp;tr=udp%3A%2F%2Ftracker.coppersurfer.tk%3A6969&amp;tr=udp%3A%2F%2Fexodus.desync.com%3A6969","seeders":10,"leechers":2,"uploader":"Bullrout","files":1,"time":1474629856,"description":"An Hour To Save Your Life - S02E03 - Minutes From Death\r\n\r\nMedical science series exploring the life or death decisions facing doctors in the first critical hour of emergency care, including 360 degree access to specialists at the scene and in hospitals.\r\n\r\nComplete name                            : An Hour To Save Your Life - S02E03 - Minutes From Death.mp4\r\nFormat                                   : MPEG-4\r\nFormat profile                           : Base Media / Version 2\r\nCodec ID                                 : mp42 (mp42/isom/avc1)\r\nFile size                                : 462 MiB\r\nDuration                                 : 58 min 58 s\r\nOverall bit rate mode                    : Variable\r\nOverall bit rate                         : 1 096 kb/s\r\n\r\nVideo\r\nID                                       : 2\r\nFormat                                   : AVC\r\nFormat/Info                              : Advanced Video Codec\r\nFormat profile                           :   \r\nFormat settings, CABAC                   : Yes\r\nFormat settings, ReFrames                : 3 frames\r\nCodec ID                                 : avc1\r\nCodec ID/Info                            : Advanced Video Coding\r\nDuration                                 : 58 min 58 s\r\nBit rate mode                            : Variable\r\nBit rate                                 : 965 kb/s\r\nMaximum bit rate                         : 1 000 kb/s\r\nWidth                                    : 720 pixels\r\nHeight                                   : 404 pixels\r\nDisplay aspect ratio                     : 16:9\r\nOriginal display aspect ratio            : 16:9\r\nFrame rate mode                          : Constant\r\nFrame rate                               : 25.000 FPS\r\nStandard                                 : PAL\r\nColor space                              : YUV\r\nChroma subsampling                       : 4:2:0\r\nBit depth                                : 8 bits\r\nScan type                                : Progressive\r\nBits/(Pixel*Frame)                       : 0.133\r\nStream size                              : 407 MiB (88%)\r\nWriting library                          : x264 core 112\r\nColor range                              : Limited\r\nColor primaries                          : BT.601 PAL\r\nTransfer characteristics                 : BT.470 System B, BT.470 System G\r\nMatrix coefficients                      : BT.601\r\n\r\nAudio\r\nID                                       : 1\r\nFormat                                   : AAC\r\nFormat/Info                              : Advanced Audio Codec\r\nFormat profile                           : LC\r\nCodec ID                                 : 40\r\nDuration                                 : 58 min 58 s\r\nBit rate mode                            : Variable\r\nBit rate                                 : 128 kb/s\r\nMaximum bit rate                         : 576 kb/s\r\nChannel(s)                               : 2 channels\r\nChannel positions                        : Front: L R\r\nSampling rate                            : 48.0 kHz\r\nFrame rate                               : 46.875 FPS (1024 spf)\r\nCompression mode                         : Lossy\r\nStream size                              : 54.0 MiB (12%)","torrent":{"xt":"urn:btih:25070d0200302a97fc260a593817778700eeac17","amp;dn":"An+Hour+To+Save+Your+Life+-+S02E03+-+Minutes+From+Death","amp;tr":["udp%3A%2F%2Ftracker.leechers-paradise.org%3A6969","udp%3A%2F%2Fzer0day.ch%3A1337","udp%3A%2F%2Fopen.demonii.com%3A1337","udp%3A%2F%2Ftracker.coppersurfer.tk%3A6969","udp%3A%2F%2Fexodus.desync.com%3A6969"],"infoHash":"25070d0200302a97fc260a593817778700eeac17","infoHashBuffer":{"type":"Buffer","data":[37,7,13,2,0,48,42,151,252,38,10,89,56,23,119,135,0,238,172,23]},"announce":[],"urlList":[]}}